<?xml version="1.0" encoding="UTF-8" standalone="no"?>
<!DOCTYPE svg PUBLIC "-//W3C//DTD SVG 1.1//EN"
 "http://www.w3.org/Graphics/SVG/1.1/DTD/svg11.dtd">
<!-- Generated by graphviz version 2.40.1 (20161225.0304)
 -->
<!-- Title: G Pages: 1 -->
<svg width="212pt" height="798pt"
 viewBox="0.00 0.00 212.00 798.00" xmlns="http://www.w3.org/2000/svg" xmlns:xlink="http://www.w3.org/1999/xlink">
<g id="graph0" class="graph" transform="scale(1 1) rotate(0) translate(4 794)">
<title>G</title>
<polygon fill="#ffffff" stroke="transparent" points="-4,4 -4,-794 208,-794 208,4 -4,4"/>
<g id="clust1" class="cluster">
<title>cluster_Global</title>
<path fill="none" stroke="#c0c0c0" d="M20,-8C20,-8 184,-8 184,-8 190,-8 196,-14 196,-20 196,-20 196,-770 196,-770 196,-776 190,-782 184,-782 184,-782 20,-782 20,-782 14,-782 8,-776 8,-770 8,-770 8,-20 8,-20 8,-14 14,-8 20,-8"/>
<text text-anchor="middle" x="102" y="-769.2" font-family="Times,serif" font-size="11.00" fill="#c0c0c0">Global</text>
</g>
<!-- \\swoole_http_server -->
<g id="node1" class="node">
<title>\\swoole_http_server</title>
<polygon fill="none" stroke="#000000" points="171,-754 33,-754 33,-718 171,-718 171,-754"/>
<text text-anchor="middle" x="102" y="-733.2" font-family="Courier,monospace" font-size="11.00" fill="#000000">swoole_http_server</text>
</g>
<!-- \\swoole_http_response -->
<g id="node2" class="node">
<title>\\swoole_http_response</title>
<polygon fill="none" stroke="#000000" points="178,-700 26,-700 26,-664 178,-664 178,-700"/>
<text text-anchor="middle" x="102" y="-679.2" font-family="Courier,monospace" font-size="11.00" fill="#000000">swoole_http_response</text>
</g>
<!-- \\swoole_http_request -->
<g id="node3" class="node">
<title>\\swoole_http_request</title>
<polygon fill="none" stroke="#000000" points="174.5,-646 29.5,-646 29.5,-610 174.5,-610 174.5,-646"/>
<text text-anchor="middle" x="102" y="-625.2" font-family="Courier,monospace" font-size="11.00" fill="#000000">swoole_http_request</text>
</g>
<!-- \\swoole_client -->
<g id="node4" class="node">
<title>\\swoole_client</title>
<polygon fill="none" stroke="#000000" points="154,-592 50,-592 50,-556 154,-556 154,-592"/>
<text text-anchor="middle" x="102" y="-571.2" font-family="Courier,monospace" font-size="11.00" fill="#000000">swoole_client</text>
</g>
<!-- \\swoole_server -->
<g id="node5" class="node">
<title>\\swoole_server</title>
<polygon fill="none" stroke="#000000" points="154,-538 50,-538 50,-502 154,-502 154,-538"/>
<text text-anchor="middle" x="102" y="-517.2" font-family="Courier,monospace" font-size="11.00" fill="#000000">swoole_server</text>
</g>
<!-- \\swoole_mysql -->
<g id="node6" class="node">
<title>\\swoole_mysql</title>
<polygon fill="none" stroke="#000000" points="151,-484 53,-484 53,-448 151,-448 151,-484"/>
<text text-anchor="middle" x="102" y="-463.2" font-family="Courier,monospace" font-size="11.00" fill="#000000">swoole_mysql</text>
</g>
<!-- \\swoole_connpool -->
<g id="node7" class="node">
<title>\\swoole_connpool</title>
<polygon fill="none" stroke="#000000" points="161,-430 43,-430 43,-394 161,-394 161,-430"/>
<text text-anchor="middle" x="102" y="-409.2" font-family="Courier,monospace" font-size="11.00" fill="#000000">swoole_connpool</text>
</g>
<!-- \\swoole_process -->
<g id="node8" class="node">
<title>\\swoole_process</title>
<polygon fill="none" stroke="#000000" points="157.5,-376 46.5,-376 46.5,-340 157.5,-340 157.5,-376"/>
<text text-anchor="middle" x="102" y="-355.2" font-family="Courier,monospace" font-size="11.00" fill="#000000">swoole_process</text>
</g>
<!-- \\swoole_http_client -->
<g id="node9" class="node">
<title>\\swoole_http_client</title>
<polygon fill="none" stroke="#000000" points="171,-322 33,-322 33,-286 171,-286 171,-322"/>
<text text-anchor="middle" x="102" y="-301.2" font-family="Courier,monospace" font-size="11.00" fill="#000000">swoole_http_client</text>
</g>
<!-- \\swoole_redis -->
<g id="node10" class="node">
<title>\\swoole_redis</title>
<polygon fill="none" stroke="#000000" points="151,-268 53,-268 53,-232 151,-232 151,-268"/>
<text text-anchor="middle" x="102" y="-247.2" font-family="Courier,monospace" font-size="11.00" fill="#000000">swoole_redis</text>
</g>
<!-- \\swoole_server_port -->
<g id="node11" class="node">
<title>\\swoole_server_port</title>
<polygon fill="none" stroke="#000000" points="171,-214 33,-214 33,-178 171,-178 171,-214"/>
<text text-anchor="middle" x="102" y="-193.2" font-family="Courier,monospace" font-size="11.00" fill="#000000">swoole_server_port</text>
</g>
<!-- \\swoole_buffer -->
<g id="node12" class="node">
<title>\\swoole_buffer</title>
<polygon fill="none" stroke="#000000" points="154,-160 50,-160 50,-124 154,-124 154,-160"/>
<text text-anchor="middle" x="102" y="-139.2" font-family="Courier,monospace" font-size="11.00" fill="#000000">swoole_buffer</text>
</g>
<!-- \\swoole_timer -->
<g id="node13" class="node">
<title>\\swoole_timer</title>
<polygon fill="none" stroke="#000000" points="151,-106 53,-106 53,-70 151,-70 151,-106"/>
<text text-anchor="middle" x="102" y="-85.2" font-family="Courier,monospace" font-size="11.00" fill="#000000">swoole_timer</text>
</g>
<!-- \\swoole_websocket_server -->
<g id="node14" class="node">
<title>\\swoole_websocket_server</title>
<polygon fill="none" stroke="#000000" points="188,-52 16,-52 16,-16 188,-16 188,-52"/>
<text text-anchor="middle" x="102" y="-31.2" font-family="Courier,monospace" font-size="11.00" fill="#000000">swoole_websocket_server</text>
</g>
</g>
</svg>
